<svg width="131" height="28" viewBox="0 0 131 28" fill="none" xmlns="http://www.w3.org/2000/svg"><g clip-path="url(#clip0_45_3569)"><path d="M38.8877 7.23364C38.1726 7.23364 37.5554 6.97118 37.0313 6.44626C36.5072 5.92133 36.2451 5.3032 36.2451 4.58695C36.2451 3.87315 36.5072 3.24766 37.0313 2.71047C37.5554 2.17328 38.175 1.90591 38.8877 1.90591C39.6225 1.90591 40.2544 2.17328 40.7785 2.71047C41.3026 3.24766 41.5647 3.87315 41.5647 4.58695C41.5647 5.3032 41.3026 5.92133 40.7785 6.44626C40.2519 6.97118 39.6225 7.23364 38.8877 7.23364ZM36.7472 25.9935V9.24258H41.0626V25.9935H36.7472Z" fill="currentColor"></path><path d="M61.7664 25.9935H56.7824L53.1527 20.916L49.5231 25.9935H44.5391L50.6693 17.4427L44.806 9.24257H49.79L53.1625 13.962L56.5448 9.24257H61.4945L55.641 17.4304L61.7664 25.9935Z" fill="currentColor"></path><path d="M74.2444 6.22796C71.881 6.04889 70.698 6.99817 70.698 9.07579V9.24259H74.2444V13.3978H70.698V25.9935H66.3826V13.3978H63.9751V9.24259H66.3826V9.07579C66.3826 6.70873 67.039 4.91074 68.3566 3.68183C69.6718 2.45292 71.6336 1.91819 74.2444 2.07272V6.22796Z" fill="currentColor"></path><path d="M77.8862 25.9935V1.53798H82.2016V25.9935H77.8862Z" fill="currentColor"></path><path d="M101.739 23.8987C100.022 25.6084 97.9259 26.462 95.4498 26.462C92.9737 26.462 90.8846 25.6084 89.1775 23.8987C87.4705 22.1915 86.6182 20.0967 86.6182 17.6168C86.6182 15.1369 87.4705 13.0446 89.1775 11.3349C90.8846 9.62521 92.9737 8.7716 95.4498 8.7716C97.9259 8.7716 100.02 9.62521 101.739 11.3349C103.456 13.0421 104.316 15.1369 104.316 17.6168C104.316 20.0967 103.456 22.1915 101.739 23.8987ZM92.2218 20.9356C93.079 21.8064 94.1566 22.243 95.4498 22.243C96.7429 22.243 97.8255 21.8064 98.6949 20.9356C99.5644 20.0648 100 18.9585 100 17.6193C100 16.28 99.5644 15.1737 98.6949 14.3029C97.8255 13.4321 96.7429 12.9955 95.4498 12.9955C94.1566 12.9955 93.079 13.4321 92.2218 14.3029C91.3622 15.1737 90.9336 16.28 90.9336 17.6193C90.936 18.9585 91.3646 20.0624 92.2218 20.9356Z" fill="currentColor"></path><path d="M126.861 9.24257H131.003L126.126 25.9935H121.897L118.732 15.8434L115.568 25.9935H111.338L106.423 9.24257H110.986L113.849 19.5276L116.895 9.24257H120.978L124.025 19.5644L126.861 9.24257Z" fill="currentColor"></path><path d="M2.17432 0H35.5317L18.6914 19.692L19.9576 7.56969L2.17432 0Z" fill="currentColor"></path><path d="M33.3598 28H0L16.8403 8.30801L15.5741 20.4303L33.3598 28Z" fill="currentColor"></path></g><defs><clipPath id="clip0_45_3569"><rect width="131" height="28" fill="currentColor"></rect></clipPath></defs></svg>