<svg xmlns="http://www.w3.org/2000/svg" height="20px" viewBox="0 -960 960 960" width="20px" fill="#1f1f1f"><path d="M96-192v-92q0-25.78 12.5-47.39T143-366q54-32 114.5-49T384-432q66 0 126.5 17T625-366q22 13 34.5 34.61T672-284v92H96Zm648 0v-92q0-42-19.5-78T672-421q39 8 75.5 21.5T817-366q22 13 34.5 34.67Q864-309.65 864-284v92H744ZM282-522q-42-42-42-102t42-102q42-42 102-42t102 42q42 42 42 102t-42 102q-42 42-102 42t-102-42Zm396 0q-42 42-102 42-8 0-15-.5t-15-2.5q25-29 39.5-64.5T600-624q0-41-14.5-76.5T546-765q8-2 15-2.5t15-.5q60 0 102 42t42 102q0 60-42 102ZM168-264h432v-20q0-6.47-3.03-11.76-3.02-5.3-7.97-8.24-47-27-99-41.5T384-360q-54 0-106 14t-99 42q-4.95 2.83-7.98 7.91-3.02 5.09-3.02 12V-264Zm267-309.21q21-21.21 21-51T434.79-675q-21.21-21-51-21T333-674.79q-21 21.21-21 51T333.21-573q21.21 21 51 21T435-573.21ZM384-264Zm0-360Z"/></svg>